<?xml version="1.0" standalone="no"?>
<!DOCTYPE svg PUBLIC "-//W3C//DTD SVG 20010904//EN"
 "http://www.w3.org/TR/2001/REC-SVG-20010904/DTD/svg10.dtd">
<svg version="1.0" xmlns="http://www.w3.org/2000/svg"
 width="16.000000pt" height="16.000000pt" viewBox="0 0 16.000000 16.000000"
 preserveAspectRatio="xMidYMid meet">

<g transform="translate(0.000000,16.000000) scale(0.100000,-0.100000)"
fill="#000000" stroke="none">
<path d="M0 80 c0 -53 2 -60 20 -60 21 0 27 24 9 36 -11 6 -9 32 6 67 5 13 2
17 -14 17 -19 0 -21 -6 -21 -60z"/>
<path d="M45 110 c-15 -28 -14 -33 2 -60 9 -17 26 -30 36 -30 17 0 17 1 0 30
-17 29 -17 31 0 60 18 29 18 30 -2 30 -13 0 -27 -12 -36 -30z"/>
<path d="M97 111 c-16 -28 -16 -31 0 -60 10 -17 26 -31 36 -31 21 0 21 4 1 35
-15 23 -15 27 0 50 20 31 20 35 -2 35 -10 0 -25 -13 -35 -29z"/>
</g>
</svg>
